<svg version="1" xmlns="http://www.w3.org/2000/svg" width="680" height="680" viewBox="0 0 510.000000 510.000000"><path d="M238.9 102.4c-.2.2-6 .7-12.9 1-26.8 1.3-30.7 1.5-38 2-4.1.3-12.2.8-18 1.2-5.8.3-10.8.8-11.2 1.1-.5.2-.8 1.6-.8 3.1 0 2.1.8 3.2 3.4 4.6 1.9 1 4.3 3.5 5.3 5.5 1.7 3.4 1.8 10.7 2.1 134.7.2 118.8.1 131.5-1.4 135.8-1.7 4.9-5.9 8.6-9.6 8.6-1.4 0-1.8.8-1.8 3.5v3.5h101v-3.5c0-3-.3-3.5-2.2-3.5-1.3 0-4.2-.9-6.5-1.9-4.7-2.2-7.1-6-8-12.4-.6-5.1-.8-87.5-.2-88.1.8-.8 43.8 86.7 44.4 90.2.8 4.7.8 4.4.6 7.4-.1 1.9-.9 3.2-3 4.2-2.3 1.2-2.8 2.2-2.7 4.6l.1 3 48-.2 48-.3.2-3.3c.1-2.2-.3-3.2-1.3-3.2-2 0-7.5-2.9-9.4-4.9-3.8-4-7.3-9.7-15-24.6-11.8-22.7-19.4-37.5-25.5-49-2.9-5.5-8.2-15.6-11.7-22.5-5.4-10.4-15.6-29.9-21.5-41-.7-1.4-1.3-3-1.3-3.6 0-1.3 15.9-15.4 28.4-25.3 19.5-15.4 38.6-25.9 54.4-29.7.6-.2 1.2-1.8 1.2-3.6v-3.3H265.5l-.3 3.2c-.3 2.9.1 3.4 4 5.4 6.5 3.2 15.6 9.6 18.8 13.2 7.2 7.8 6.3 16.5-2.8 28.7-6.2 8.2-43.7 42.8-45 41.5-.3-.3-.5-41.4-.5-91.5 0-50-.1-91-.2-91s-.4.2-.6.4z"/></svg>